<svg width="42" height="41" viewBox="0 0 42 41" fill="none" xmlns="http://www.w3.org/2000/svg">
<path d="M2 8C2 4.68629 4.68629 2 8 2H32C35.3137 2 38 4.68629 38 8V26.5267C38 27.0684 37.5702 27.5153 37.0307 27.565C35.311 27.7237 31.7435 28.2565 30 30C28.2868 31.7132 28.009 35.1873 27.9839 36.9392C27.9757 37.5155 27.5131 38 26.9367 38H8C4.68629 38 2 35.3137 2 32V8Z" fill="#636270"/>
<circle cx="35.5" cy="34.5" r="4.5" fill="#00FF84"/>
<path d="M33.5 34.5L34.5 36L38 33" stroke="black"/>
<circle cx="10.5" cy="19.5" r="2.5" fill="white"/>
<circle cx="27.5" cy="19.5" r="2.5" fill="white"/>
<path d="M23.5615 27H14.4024C14.2171 27 14.0965 27.195 14.1828 27.359C15.1849 29.2614 16.1755 30.0054 19 30C21.4332 29.9953 22.4951 29.41 23.7716 27.3752C23.8746 27.2112 23.7552 27 23.5615 27Z" fill="white"/>
</svg>
