<svg width="31" height="15" viewBox="0 0 31 15" fill="none" xmlns="http://www.w3.org/2000/svg">
<rect width="31" height="15" rx="7.5" fill="#343647"/>
<path d="M6.68555 4.04443H7.71826L10.979 9.27393V4.04443H11.8096V10.5H10.8296L7.52051 5.2749V10.5H6.68555V4.04443ZM15.0439 5.68799C15.3779 5.68799 15.7017 5.76709 16.0151 5.92529C16.3286 6.08057 16.5674 6.28271 16.7314 6.53174C16.8896 6.76904 16.9951 7.0459 17.0479 7.3623C17.0947 7.5791 17.1182 7.9248 17.1182 8.39941H13.6685C13.6831 8.87695 13.7959 9.26074 14.0068 9.55078C14.2178 9.83789 14.5444 9.98145 14.9868 9.98145C15.3999 9.98145 15.7295 9.84521 15.9756 9.57275C16.1162 9.41455 16.2158 9.23145 16.2744 9.02344H17.0522C17.0317 9.19629 16.9629 9.38965 16.8457 9.60352C16.7314 9.81445 16.6025 9.9873 16.459 10.1221C16.2188 10.3564 15.9214 10.5146 15.5669 10.5967C15.3765 10.6436 15.1611 10.667 14.9209 10.667C14.335 10.667 13.8384 10.4546 13.4312 10.0298C13.0239 9.60205 12.8203 9.00439 12.8203 8.23682C12.8203 7.48096 13.0254 6.86719 13.4355 6.39551C13.8457 5.92383 14.3818 5.68799 15.0439 5.68799ZM16.3052 7.771C16.2729 7.42822 16.1982 7.1543 16.0811 6.94922C15.8643 6.56836 15.5024 6.37793 14.9956 6.37793C14.6323 6.37793 14.3276 6.50977 14.0815 6.77344C13.8354 7.03418 13.7051 7.3667 13.6904 7.771H16.3052ZM18.4585 5.79346L19.3638 9.50244L20.2822 5.79346H21.1699L22.0928 9.48047L23.0552 5.79346H23.8462L22.4795 10.5H21.6577L20.6997 6.85693L19.7725 10.5H18.9507L17.5928 5.79346H18.4585Z" fill="#00FF84"/>
</svg>
