<svg width="121" height="15" viewBox="0 0 121 15" fill="none" xmlns="http://www.w3.org/2000/svg">
<path d="M75.8467 2.52295C75.1823 3.81364 74.7507 4.76367 74.5518 5.37305C74.2513 6.2998 74.1011 7.37044 74.1011 8.58496C74.1011 9.81217 74.2725 10.9336 74.6152 11.9492C74.8268 12.5755 75.2437 13.4769 75.8657 14.6533H75.0977C74.4798 13.6885 74.0968 13.0728 73.9487 12.8062C73.8006 12.5396 73.6398 12.1777 73.4663 11.7207C73.2293 11.0944 73.0643 10.4258 72.9712 9.71484C72.9246 9.34668 72.9014 8.99544 72.9014 8.66113C72.9014 7.40853 73.0981 6.29346 73.4917 5.31592C73.7414 4.69385 74.2619 3.76286 75.0532 2.52295H75.8467ZM76.7354 12C76.7777 11.2171 76.9385 10.5358 77.2178 9.95605C77.5013 9.3763 78.0514 8.84945 78.8682 8.37549L80.0869 7.6709C80.6328 7.35352 81.0158 7.08268 81.2358 6.8584C81.5828 6.50716 81.7563 6.10514 81.7563 5.65234C81.7563 5.12337 81.5977 4.70443 81.2803 4.39551C80.9629 4.08236 80.5397 3.92578 80.0107 3.92578C79.2279 3.92578 78.6862 4.22201 78.3857 4.81445C78.2249 5.13184 78.1361 5.57194 78.1191 6.13477H76.9575C76.9702 5.34342 77.1162 4.69808 77.3955 4.19873C77.8906 3.31852 78.7645 2.87842 80.0171 2.87842C81.0581 2.87842 81.8177 3.15983 82.2959 3.72266C82.7783 4.28548 83.0195 4.91178 83.0195 5.60156C83.0195 6.32943 82.7635 6.9515 82.2515 7.46777C81.9552 7.76823 81.4242 8.13216 80.6582 8.55957L79.7886 9.04199C79.3739 9.27051 79.048 9.48844 78.811 9.6958C78.3879 10.064 78.1213 10.4723 78.0112 10.9209H82.9751V12H76.7354ZM87.082 2.91016C88.2585 2.91016 89.109 3.39469 89.6338 4.36377C90.04 5.11279 90.2432 6.139 90.2432 7.44238C90.2432 8.67806 90.0591 9.70003 89.6909 10.5083C89.1577 11.6678 88.286 12.2476 87.0757 12.2476C85.9839 12.2476 85.1714 11.7736 84.6382 10.8257C84.1938 10.0343 83.9717 8.97217 83.9717 7.63916C83.9717 6.60661 84.105 5.72005 84.3716 4.97949C84.8709 3.59993 85.7744 2.91016 87.082 2.91016ZM87.0693 11.2065C87.6618 11.2065 88.1336 10.9442 88.4849 10.4194C88.8361 9.89469 89.0117 8.91715 89.0117 7.48682C89.0117 6.45426 88.8848 5.60579 88.6309 4.94141C88.377 4.27279 87.884 3.93848 87.1519 3.93848C86.479 3.93848 85.986 4.25586 85.6729 4.89062C85.3639 5.52116 85.2095 6.45215 85.2095 7.68359C85.2095 8.61035 85.3089 9.35514 85.5078 9.91797C85.8125 10.777 86.333 11.2065 87.0693 11.2065ZM91.8809 13.3267C92.1729 13.2759 92.3781 13.0706 92.4966 12.7109C92.5601 12.5205 92.5918 12.3364 92.5918 12.1587C92.5918 12.1291 92.5897 12.1016 92.5854 12.0762C92.5854 12.055 92.5812 12.0296 92.5728 12H91.8809V10.6162H93.2393V11.8984C93.2393 12.402 93.1377 12.8442 92.9346 13.2251C92.7314 13.606 92.3802 13.8408 91.8809 13.9297V13.3267ZM97.9556 6.71875C98.4591 6.71875 98.8527 6.5791 99.1362 6.2998C99.4198 6.01628 99.5615 5.67985 99.5615 5.29053C99.5615 4.95199 99.4261 4.64095 99.1553 4.35742C98.8844 4.07389 98.4718 3.93213 97.9175 3.93213C97.3674 3.93213 96.9696 4.07389 96.7241 4.35742C96.4787 4.64095 96.356 4.97314 96.356 5.354C96.356 5.78141 96.5146 6.11572 96.832 6.35693C97.1494 6.59814 97.5239 6.71875 97.9556 6.71875ZM98.0254 11.2192C98.5544 11.2192 98.9924 11.0775 99.3394 10.7939C99.6906 10.5062 99.8662 10.0788 99.8662 9.51172C99.8662 8.9235 99.6864 8.47705 99.3267 8.17236C98.967 7.86768 98.5057 7.71533 97.9429 7.71533C97.397 7.71533 96.9505 7.87191 96.6035 8.18506C96.2607 8.49398 96.0894 8.9235 96.0894 9.47363C96.0894 9.94759 96.2459 10.3581 96.5591 10.7051C96.8765 11.0479 97.3652 11.2192 98.0254 11.2192ZM96.4004 7.15674C96.083 7.02132 95.8354 6.86263 95.6577 6.68066C95.3234 6.34212 95.1562 5.90202 95.1562 5.36035C95.1562 4.68327 95.4017 4.1014 95.8926 3.61475C96.3835 3.12809 97.0796 2.88477 97.981 2.88477C98.8527 2.88477 99.5361 3.1154 100.031 3.57666C100.526 4.03369 100.774 4.56901 100.774 5.18262C100.774 5.74967 100.63 6.20882 100.342 6.56006C100.181 6.75895 99.9318 6.95361 99.5933 7.14404C99.9699 7.31755 100.266 7.51644 100.482 7.74072C100.884 8.1639 101.085 8.71403 101.085 9.39111C101.085 10.1909 100.816 10.8701 100.279 11.4287C99.7414 11.9831 98.9818 12.2603 98 12.2603C97.1156 12.2603 96.3665 12.0212 95.7529 11.543C95.1436 11.0605 94.8389 10.3623 94.8389 9.44824C94.8389 8.91081 94.9701 8.44743 95.2324 8.05811C95.4948 7.66455 95.8841 7.3641 96.4004 7.15674ZM102.062 12C102.105 11.2171 102.266 10.5358 102.545 9.95605C102.828 9.3763 103.379 8.84945 104.195 8.37549L105.414 7.6709C105.96 7.35352 106.343 7.08268 106.563 6.8584C106.91 6.50716 107.083 6.10514 107.083 5.65234C107.083 5.12337 106.925 4.70443 106.607 4.39551C106.29 4.08236 105.867 3.92578 105.338 3.92578C104.555 3.92578 104.013 4.22201 103.713 4.81445C103.552 5.13184 103.463 5.57194 103.446 6.13477H102.285C102.297 5.34342 102.443 4.69808 102.723 4.19873C103.218 3.31852 104.092 2.87842 105.344 2.87842C106.385 2.87842 107.145 3.15983 107.623 3.72266C108.105 4.28548 108.347 4.91178 108.347 5.60156C108.347 6.32943 108.091 6.9515 107.579 7.46777C107.282 7.76823 106.751 8.13216 105.985 8.55957L105.116 9.04199C104.701 9.27051 104.375 9.48844 104.138 9.6958C103.715 10.064 103.448 10.4723 103.338 10.9209H108.302V12H102.062ZM115.691 3.0625V4.05908C115.399 4.34261 115.01 4.83561 114.523 5.53809C114.041 6.24056 113.613 6.99805 113.241 7.81055C112.873 8.60189 112.593 9.3234 112.403 9.9751C112.28 10.394 112.121 11.069 111.927 12H110.664C110.951 10.265 111.586 8.53841 112.568 6.82031C113.148 5.81315 113.757 4.94352 114.396 4.21143H109.369V3.0625H115.691ZM116.58 14.6533C117.252 13.3415 117.686 12.3851 117.881 11.7842C118.177 10.8743 118.325 9.80794 118.325 8.58496C118.325 7.36198 118.154 6.24268 117.811 5.22705C117.599 4.60075 117.183 3.69938 116.561 2.52295H117.329C117.98 3.56396 118.374 4.20719 118.509 4.45264C118.649 4.69385 118.799 5.02816 118.96 5.45557C119.163 5.98454 119.307 6.50716 119.392 7.02344C119.48 7.53971 119.525 8.03695 119.525 8.51514C119.525 9.76774 119.326 10.8849 118.928 11.8667C118.679 12.4972 118.16 13.4261 117.373 14.6533H116.58Z" fill="#00FF84"/>
<g clip-path="url(#clip0_22_907)">
<path d="M6 10.702L3.18351 12.8391C3.04395 12.9526 2.89171 13.006 2.72678 12.9995C2.56185 12.9934 2.41595 12.9463 2.28908 12.858C2.16221 12.7697 2.06401 12.65 1.99449 12.4987C1.92446 12.3474 1.92116 12.1835 1.98459 12.0069L3.06932 8.50817L0.309923 6.56021C0.15768 6.45934 0.0625283 6.32696 0.0244676 6.16305C-0.0135931 5.99915 -0.00724962 5.84785 0.043498 5.70916C0.0942456 5.57047 0.183054 5.44741 0.309923 5.33999C0.436792 5.23307 0.589035 5.17961 0.766652 5.17961H4.17309L5.27685 1.54846C5.34028 1.37194 5.43873 1.23628 5.5722 1.14146C5.70516 1.04715 5.84776 1 6 1C6.15224 1 6.29484 1.04715 6.4278 1.14146C6.56127 1.23628 6.65972 1.37194 6.72315 1.54846L7.82691 5.17961H11.2333C11.411 5.17961 11.5632 5.23307 11.6901 5.33999C11.8169 5.44741 11.9058 5.57047 11.9565 5.70916C12.0073 5.84785 12.0136 5.99915 11.9755 6.16305C11.9375 6.32696 11.8423 6.45934 11.6901 6.56021L8.93068 8.50817L10.0154 12.0069C10.0788 12.1835 10.0758 12.3474 10.0063 12.4987C9.93624 12.65 9.83779 12.7697 9.71092 12.858C9.58405 12.9463 9.43815 12.9934 9.27322 12.9995C9.10829 13.006 8.95605 12.9526 8.81649 12.8391L6 10.702Z" fill="#00FF84"/>
</g>
<g clip-path="url(#clip1_22_907)">
<path d="M20 10.702L17.1835 12.8391C17.044 12.9526 16.8917 13.006 16.7268 12.9995C16.5618 12.9934 16.4159 12.9463 16.2891 12.858C16.1622 12.7697 16.064 12.65 15.9945 12.4987C15.9245 12.3474 15.9212 12.1835 15.9846 12.0069L17.0693 8.50817L14.3099 6.56021C14.1577 6.45934 14.0625 6.32696 14.0245 6.16305C13.9864 5.99915 13.9928 5.84785 14.0435 5.70916C14.0942 5.57047 14.1831 5.44741 14.3099 5.33999C14.4368 5.23307 14.589 5.17961 14.7667 5.17961H18.1731L19.2768 1.54846C19.3403 1.37194 19.4387 1.23628 19.5722 1.14146C19.7052 1.04715 19.8478 1 20 1C20.1522 1 20.2948 1.04715 20.4278 1.14146C20.5613 1.23628 20.6597 1.37194 20.7232 1.54846L21.8269 5.17961H25.2333C25.411 5.17961 25.5632 5.23307 25.6901 5.33999C25.8169 5.44741 25.9058 5.57047 25.9565 5.70916C26.0073 5.84785 26.0136 5.99915 25.9755 6.16305C25.9375 6.32696 25.8423 6.45934 25.6901 6.56021L22.9307 8.50817L24.0154 12.0069C24.0788 12.1835 24.0758 12.3474 24.0063 12.4987C23.9362 12.65 23.8378 12.7697 23.7109 12.858C23.5841 12.9463 23.4382 12.9934 23.2732 12.9995C23.1083 13.006 22.956 12.9526 22.8165 12.8391L20 10.702Z" fill="#00FF84"/>
</g>
<g clip-path="url(#clip2_22_907)">
<path d="M34 10.702L31.1835 12.8391C31.044 12.9526 30.8917 13.006 30.7268 12.9995C30.5618 12.9934 30.4159 12.9463 30.2891 12.858C30.1622 12.7697 30.064 12.65 29.9945 12.4987C29.9245 12.3474 29.9212 12.1835 29.9846 12.0069L31.0693 8.50817L28.3099 6.56021C28.1577 6.45934 28.0625 6.32696 28.0245 6.16305C27.9864 5.99915 27.9928 5.84785 28.0435 5.70916C28.0942 5.57047 28.1831 5.44741 28.3099 5.33999C28.4368 5.23307 28.589 5.17961 28.7667 5.17961H32.1731L33.2768 1.54846C33.3403 1.37194 33.4387 1.23628 33.5722 1.14146C33.7052 1.04715 33.8478 1 34 1C34.1522 1 34.2948 1.04715 34.4278 1.14146C34.5613 1.23628 34.6597 1.37194 34.7232 1.54846L35.8269 5.17961H39.2333C39.411 5.17961 39.5632 5.23307 39.6901 5.33999C39.8169 5.44741 39.9058 5.57047 39.9565 5.70916C40.0073 5.84785 40.0136 5.99915 39.9755 6.16305C39.9375 6.32696 39.8423 6.45934 39.6901 6.56021L36.9307 8.50817L38.0154 12.0069C38.0788 12.1835 38.0758 12.3474 38.0063 12.4987C37.9362 12.65 37.8378 12.7697 37.7109 12.858C37.5841 12.9463 37.4382 12.9934 37.2732 12.9995C37.1083 13.006 36.956 12.9526 36.8165 12.8391L34 10.702Z" fill="#00FF84"/>
</g>
<g clip-path="url(#clip3_22_907)">
<path d="M48 10.702L45.1835 12.8391C45.044 12.9526 44.8917 13.006 44.7268 12.9995C44.5618 12.9934 44.4159 12.9463 44.2891 12.858C44.1622 12.7697 44.064 12.65 43.9945 12.4987C43.9245 12.3474 43.9212 12.1835 43.9846 12.0069L45.0693 8.50817L42.3099 6.56021C42.1577 6.45934 42.0625 6.32696 42.0245 6.16305C41.9864 5.99915 41.9928 5.84785 42.0435 5.70916C42.0942 5.57047 42.1831 5.44741 42.3099 5.33999C42.4368 5.23307 42.589 5.17961 42.7667 5.17961H46.1731L47.2768 1.54846C47.3403 1.37194 47.4387 1.23628 47.5722 1.14146C47.7052 1.04715 47.8478 1 48 1C48.1522 1 48.2948 1.04715 48.4278 1.14146C48.5613 1.23628 48.6597 1.37194 48.7232 1.54846L49.8269 5.17961H53.2333C53.411 5.17961 53.5632 5.23307 53.6901 5.33999C53.8169 5.44741 53.9058 5.57047 53.9565 5.70916C54.0073 5.84785 54.0136 5.99915 53.9755 6.16305C53.9375 6.32696 53.8423 6.45934 53.6901 6.56021L50.9307 8.50817L52.0154 12.0069C52.0788 12.1835 52.0758 12.3474 52.0063 12.4987C51.9362 12.65 51.8378 12.7697 51.7109 12.858C51.5841 12.9463 51.4382 12.9934 51.2732 12.9995C51.1083 13.006 50.956 12.9526 50.8165 12.8391L48 10.702Z" fill="#00FF84"/>
</g>
<g clip-path="url(#clip4_22_907)">
<path d="M62 10.702L59.1835 12.8391C59.044 12.9526 58.8917 13.006 58.7268 12.9995C58.5618 12.9934 58.4159 12.9463 58.2891 12.858C58.1622 12.7697 58.064 12.65 57.9945 12.4987C57.9245 12.3474 57.9212 12.1835 57.9846 12.0069L59.0693 8.50817L56.3099 6.56021C56.1577 6.45934 56.0625 6.32696 56.0245 6.16305C55.9864 5.99915 55.9928 5.84785 56.0435 5.70916C56.0942 5.57047 56.1831 5.44741 56.3099 5.33999C56.4368 5.23307 56.589 5.17961 56.7667 5.17961H60.1731L61.2768 1.54846C61.3403 1.37194 61.4387 1.23628 61.5722 1.14146C61.7052 1.04715 61.8478 1 62 1C62.1522 1 62.2948 1.04715 62.4278 1.14146C62.5613 1.23628 62.6597 1.37194 62.7232 1.54846L63.8269 5.17961H67.2333C67.411 5.17961 67.5632 5.23307 67.6901 5.33999C67.8169 5.44741 67.9058 5.57047 67.9565 5.70916C68.0073 5.84785 68.0136 5.99915 67.9755 6.16305C67.9375 6.32696 67.8423 6.45934 67.6901 6.56021L64.9307 8.50817L66.0154 12.0069C66.0788 12.1835 66.0758 12.3474 66.0063 12.4987C65.9362 12.65 65.8378 12.7697 65.7109 12.858C65.5841 12.9463 65.4382 12.9934 65.2732 12.9995C65.1083 13.006 64.956 12.9526 64.8165 12.8391L62 10.702Z" fill="#00FF84"/>
</g>
<defs>
<clipPath id="clip0_22_907">
<rect width="12" height="12" fill="white" transform="translate(0 1)"/>
</clipPath>
<clipPath id="clip1_22_907">
<rect width="12" height="12" fill="white" transform="translate(14 1)"/>
</clipPath>
<clipPath id="clip2_22_907">
<rect width="12" height="12" fill="white" transform="translate(28 1)"/>
</clipPath>
<clipPath id="clip3_22_907">
<rect width="12" height="12" fill="white" transform="translate(42 1)"/>
</clipPath>
<clipPath id="clip4_22_907">
<rect width="12" height="12" fill="white" transform="translate(56 1)"/>
</clipPath>
</defs>
</svg>
