<svg width="13" height="13" viewBox="0 0 13 13" fill="none" xmlns="http://www.w3.org/2000/svg">
<path fill-rule="evenodd" clip-rule="evenodd" d="M6.5 1.51513L6.87533 1.11633C7.548 0.401625 8.46067 0 9.41133 0C10.3627 0 11.2753 0.401625 11.948 1.11633C11.948 1.11704 11.9487 1.11775 11.9493 1.11846C12.622 1.83246 13 2.80217 13 3.81296C13 4.75575 12.8487 6.12 11.3887 8.03675C10.0133 9.84159 8.67467 11.0521 6.712 12.0268C6.64533 12.0601 6.57467 12.0764 6.50533 12.0771H6.49467C6.42533 12.0764 6.35467 12.0601 6.288 12.0268C4.32533 11.0521 2.98667 9.84159 1.61133 8.03675C0.151333 6.12 0 4.75575 0 3.81296C0 2.80217 0.378 1.83246 1.05067 1.11846C1.05133 1.11775 1.052 1.11704 1.052 1.11633C1.72467 0.401625 2.63733 0 3.58867 0C4.53933 0 5.452 0.401625 6.12467 1.11633L6.5 1.51513V1.51513ZM6.5 10.9572C8.20133 10.0732 9.38933 8.97246 10.6113 7.36808C11.8447 5.74954 12 4.60913 12 3.81296C12 3.08408 11.7273 2.38496 11.2427 1.86929C11.242 1.86858 11.2413 1.86788 11.2407 1.86788C10.7553 1.35221 10.0973 1.0625 9.41133 1.0625C8.72533 1.0625 8.068 1.35221 7.58267 1.86788C7.35067 2.11367 7.10667 2.37292 6.854 2.64138C6.75667 2.7455 6.628 2.79721 6.5 2.79721C6.372 2.79721 6.24333 2.7455 6.146 2.64138C5.89333 2.37292 5.64933 2.11367 5.41733 1.86788C4.932 1.35221 4.27467 1.0625 3.58867 1.0625C2.90267 1.0625 2.24467 1.35221 1.75933 1.86788C1.75867 1.86788 1.758 1.86858 1.75733 1.86929C1.27267 2.38496 1 3.08408 1 3.81296C1 4.60913 1.15533 5.74954 2.38867 7.36808C3.61067 8.97246 4.79867 10.0732 6.5 10.9572Z" fill="white"/>
</svg>
