<svg width="10" height="9" viewBox="0 0 10 9" fill="none" xmlns="http://www.w3.org/2000/svg">
<path fill-rule="evenodd" clip-rule="evenodd" d="M4.84389 1.12909L5.12359 0.831907C5.62487 0.299296 6.305 0 7.01345 0C7.7224 0 8.40253 0.299296 8.90381 0.831907C8.90381 0.832434 8.9043 0.832962 8.9048 0.83349C9.40608 1.36557 9.68777 2.08821 9.68777 2.84147C9.68777 3.54405 9.575 4.56071 8.48699 5.98909C7.46207 7.33408 6.46448 8.23619 5.00187 8.96253C4.95219 8.98734 4.89953 8.99948 4.84786 9H4.83991C4.78824 8.99948 4.73558 8.98734 4.6859 8.96253C3.2233 8.23619 2.2257 7.33408 1.20079 5.98909C0.112775 4.56071 0 3.54405 0 2.84147C0 2.08821 0.281691 1.36557 0.782971 0.83349C0.783467 0.832962 0.783964 0.832434 0.783964 0.831907C1.28524 0.299296 1.96538 0 2.67432 0C3.38277 0 4.0629 0.299296 4.56418 0.831907L4.84389 1.12909ZM4.84389 8.16546C6.11174 7.50669 6.99706 6.6864 7.90771 5.49079C8.8268 4.28464 8.94256 3.43478 8.94256 2.84147C8.94256 2.2983 8.73936 1.7773 8.37818 1.39302C8.37769 1.39249 8.37719 1.39197 8.37669 1.39197C8.01502 1.00768 7.52467 0.791789 7.01345 0.791789C6.50223 0.791789 6.01238 1.00768 5.6507 1.39197C5.47781 1.57513 5.29598 1.76833 5.10769 1.96839C5.03516 2.04598 4.93927 2.08452 4.84389 2.08452C4.7485 2.08452 4.65261 2.04598 4.58008 1.96839C4.39179 1.76833 4.20996 1.57513 4.03707 1.39197C3.67539 1.00768 3.18554 0.791789 2.67432 0.791789C2.16311 0.791789 1.67276 1.00768 1.31108 1.39197C1.31058 1.39197 1.31008 1.39249 1.30959 1.39302C0.948408 1.7773 0.745213 2.2983 0.745213 2.84147C0.745213 3.43478 0.86097 4.28464 1.78007 5.49079C2.69072 6.6864 3.57603 7.50669 4.84389 8.16546Z" fill="white"/>
</svg>
