<svg width="68" height="12" viewBox="0 0 68 12" fill="none" xmlns="http://www.w3.org/2000/svg">
<g clip-path="url(#clip0_59_3830)">
<path d="M6 9.702L3.18351 11.8391C3.04395 11.9526 2.89171 12.006 2.72678 11.9995C2.56185 11.9934 2.41595 11.9463 2.28908 11.858C2.16221 11.7697 2.06401 11.65 1.99449 11.4987C1.92446 11.3474 1.92116 11.1835 1.98459 11.0069L3.06932 7.50817L0.309923 5.56021C0.15768 5.45934 0.0625283 5.32696 0.0244676 5.16305C-0.0135931 4.99915 -0.00724962 4.84785 0.043498 4.70916C0.0942456 4.57047 0.183054 4.44741 0.309923 4.33999C0.436792 4.23307 0.589035 4.17961 0.766652 4.17961H4.17309L5.27685 0.548456C5.34028 0.371941 5.43873 0.236278 5.5722 0.141464C5.70516 0.0471548 5.84776 0 6 0C6.15224 0 6.29484 0.0471548 6.4278 0.141464C6.56127 0.236278 6.65972 0.371941 6.72315 0.548456L7.82691 4.17961H11.2333C11.411 4.17961 11.5632 4.23307 11.6901 4.33999C11.8169 4.44741 11.9058 4.57047 11.9565 4.70916C12.0073 4.84785 12.0136 4.99915 11.9755 5.16305C11.9375 5.32696 11.8423 5.45934 11.6901 5.56021L8.93068 7.50817L10.0154 11.0069C10.0788 11.1835 10.0758 11.3474 10.0063 11.4987C9.93624 11.65 9.83779 11.7697 9.71092 11.858C9.58405 11.9463 9.43815 11.9934 9.27322 11.9995C9.10829 12.006 8.95605 11.9526 8.81649 11.8391L6 9.702Z" fill="#00FF84"/>
</g>
<g clip-path="url(#clip1_59_3830)">
<path d="M20 9.702L17.1835 11.8391C17.044 11.9526 16.8917 12.006 16.7268 11.9995C16.5618 11.9934 16.4159 11.9463 16.2891 11.858C16.1622 11.7697 16.064 11.65 15.9945 11.4987C15.9245 11.3474 15.9212 11.1835 15.9846 11.0069L17.0693 7.50817L14.3099 5.56021C14.1577 5.45934 14.0625 5.32696 14.0245 5.16305C13.9864 4.99915 13.9928 4.84785 14.0435 4.70916C14.0942 4.57047 14.1831 4.44741 14.3099 4.33999C14.4368 4.23307 14.589 4.17961 14.7667 4.17961H18.1731L19.2768 0.548456C19.3403 0.371941 19.4387 0.236278 19.5722 0.141464C19.7052 0.0471548 19.8478 0 20 0C20.1522 0 20.2948 0.0471548 20.4278 0.141464C20.5613 0.236278 20.6597 0.371941 20.7232 0.548456L21.8269 4.17961H25.2333C25.411 4.17961 25.5632 4.23307 25.6901 4.33999C25.8169 4.44741 25.9058 4.57047 25.9565 4.70916C26.0073 4.84785 26.0136 4.99915 25.9755 5.16305C25.9375 5.32696 25.8423 5.45934 25.6901 5.56021L22.9307 7.50817L24.0154 11.0069C24.0788 11.1835 24.0758 11.3474 24.0063 11.4987C23.9362 11.65 23.8378 11.7697 23.7109 11.858C23.5841 11.9463 23.4382 11.9934 23.2732 11.9995C23.1083 12.006 22.956 11.9526 22.8165 11.8391L20 9.702Z" fill="#00FF84"/>
</g>
<g clip-path="url(#clip2_59_3830)">
<path d="M34 9.702L31.1835 11.8391C31.044 11.9526 30.8917 12.006 30.7268 11.9995C30.5618 11.9934 30.4159 11.9463 30.2891 11.858C30.1622 11.7697 30.064 11.65 29.9945 11.4987C29.9245 11.3474 29.9212 11.1835 29.9846 11.0069L31.0693 7.50817L28.3099 5.56021C28.1577 5.45934 28.0625 5.32696 28.0245 5.16305C27.9864 4.99915 27.9928 4.84785 28.0435 4.70916C28.0942 4.57047 28.1831 4.44741 28.3099 4.33999C28.4368 4.23307 28.589 4.17961 28.7667 4.17961H32.1731L33.2768 0.548456C33.3403 0.371941 33.4387 0.236278 33.5722 0.141464C33.7052 0.0471548 33.8478 0 34 0C34.1522 0 34.2948 0.0471548 34.4278 0.141464C34.5613 0.236278 34.6597 0.371941 34.7232 0.548456L35.8269 4.17961H39.2333C39.411 4.17961 39.5632 4.23307 39.6901 4.33999C39.8169 4.44741 39.9058 4.57047 39.9565 4.70916C40.0073 4.84785 40.0136 4.99915 39.9755 5.16305C39.9375 5.32696 39.8423 5.45934 39.6901 5.56021L36.9307 7.50817L38.0154 11.0069C38.0788 11.1835 38.0758 11.3474 38.0063 11.4987C37.9362 11.65 37.8378 11.7697 37.7109 11.858C37.5841 11.9463 37.4382 11.9934 37.2732 11.9995C37.1083 12.006 36.956 11.9526 36.8165 11.8391L34 9.702Z" fill="#00FF84"/>
</g>
<g clip-path="url(#clip3_59_3830)">
<path d="M48 9.702L45.1835 11.8391C45.044 11.9526 44.8917 12.006 44.7268 11.9995C44.5618 11.9934 44.4159 11.9463 44.2891 11.858C44.1622 11.7697 44.064 11.65 43.9945 11.4987C43.9245 11.3474 43.9212 11.1835 43.9846 11.0069L45.0693 7.50817L42.3099 5.56021C42.1577 5.45934 42.0625 5.32696 42.0245 5.16305C41.9864 4.99915 41.9928 4.84785 42.0435 4.70916C42.0942 4.57047 42.1831 4.44741 42.3099 4.33999C42.4368 4.23307 42.589 4.17961 42.7667 4.17961H46.1731L47.2768 0.548456C47.3403 0.371941 47.4387 0.236278 47.5722 0.141464C47.7052 0.0471548 47.8478 0 48 0C48.1522 0 48.2948 0.0471548 48.4278 0.141464C48.5613 0.236278 48.6597 0.371941 48.7232 0.548456L49.8269 4.17961H53.2333C53.411 4.17961 53.5632 4.23307 53.6901 4.33999C53.8169 4.44741 53.9058 4.57047 53.9565 4.70916C54.0073 4.84785 54.0136 4.99915 53.9755 5.16305C53.9375 5.32696 53.8423 5.45934 53.6901 5.56021L50.9307 7.50817L52.0154 11.0069C52.0788 11.1835 52.0758 11.3474 52.0063 11.4987C51.9362 11.65 51.8378 11.7697 51.7109 11.858C51.5841 11.9463 51.4382 11.9934 51.2732 11.9995C51.1083 12.006 50.956 11.9526 50.8165 11.8391L48 9.702Z" fill="#00FF84"/>
</g>
<g clip-path="url(#clip4_59_3830)">
<path d="M62 9.07436L62.3022 9.30368L65.1187 11.4408L65.1254 11.4458L65.1319 11.4511C65.1862 11.4953 65.2214 11.5011 65.2534 11.4999L65.2549 11.4998C65.3308 11.497 65.3826 11.4773 65.4254 11.4475C65.4735 11.4141 65.5165 11.3662 65.5522 11.2893C65.5599 11.2724 65.5698 11.2455 65.5449 11.176L65.5411 11.1656L65.5378 11.155L64.4531 7.65624L64.3455 7.30923L64.6423 7.0997L67.4017 5.15174L67.4078 5.14747L67.4139 5.14339C67.4696 5.10652 67.4819 5.07825 67.4885 5.04996C67.5077 4.96713 67.4998 4.91615 67.4869 4.88097C67.4696 4.83366 67.4363 4.78038 67.3675 4.72198C67.3375 4.69683 67.3017 4.67961 67.2333 4.67961H63.8269H63.4563L63.3485 4.32503L62.2489 0.707543C62.2155 0.619391 62.1753 0.575433 62.1382 0.54908L62 9.07436ZM62 9.07436L61.6978 9.30368M62 9.07436L61.6978 9.30368M61.6978 9.30368L58.8813 11.4408L58.8746 11.4458M61.6978 9.30368L58.8746 11.4458M58.8746 11.4458L58.8681 11.4511M58.8746 11.4458L58.8681 11.4511M58.8681 11.4511C58.8138 11.4953 58.7786 11.5011 58.7466 11.4999L58.7451 11.4998M58.8681 11.4511L58.7451 11.4998M58.7451 11.4998C58.6692 11.497 58.6174 11.4773 58.5746 11.4475C58.5267 11.4142 58.4841 11.3666 58.4488 11.2899L58.4482 11.2886M58.7451 11.4998L58.4482 11.2886M58.4482 11.2886C58.4405 11.2719 58.4301 11.2457 58.4551 11.176L58.4589 11.1656M58.4482 11.2886L58.4589 11.1656M58.4589 11.1656L58.4622 11.155M58.4589 11.1656L58.4622 11.155M58.4622 11.155L59.5469 7.65624L59.6545 7.30923M58.4622 11.155L59.6545 7.30923M59.6545 7.30923L59.3577 7.0997M59.6545 7.30923L59.3577 7.0997M59.3577 7.0997L56.5983 5.15174L56.5922 5.14747M59.3577 7.0997L56.5922 5.14747M56.5922 5.14747L56.5861 5.14339M56.5922 5.14747L56.5861 5.14339M56.5861 5.14339C56.5304 5.10652 56.5181 5.07825 56.5115 5.04996C56.4923 4.96713 56.5002 4.91615 56.5131 4.88097C56.5304 4.83367 56.5637 4.78039 56.6325 4.72199C56.6625 4.69684 56.6983 4.67961 56.7667 4.67961H60.1731H60.5437M56.5861 5.14339L60.5437 4.67961M60.5437 4.67961L60.6515 4.32503M60.5437 4.67961L60.6515 4.32503M60.6515 4.32503L61.7511 0.707543M60.6515 4.32503L61.7511 0.707543M61.7511 0.707543C61.7845 0.61939 61.8247 0.575432 61.8618 0.54908L61.5722 0.141464L61.7511 0.707543Z" stroke="#00FF84"/>
</g>
<defs>
<clipPath id="clip0_59_3830">
<rect width="12" height="12" fill="white"/>
</clipPath>
<clipPath id="clip1_59_3830">
<rect width="12" height="12" fill="white" transform="translate(14)"/>
</clipPath>
<clipPath id="clip2_59_3830">
<rect width="12" height="12" fill="white" transform="translate(28)"/>
</clipPath>
<clipPath id="clip3_59_3830">
<rect width="12" height="12" fill="white" transform="translate(42)"/>
</clipPath>
<clipPath id="clip4_59_3830">
<rect width="12" height="12" fill="white" transform="translate(56)"/>
</clipPath>
</defs>
</svg>
