<svg width="29" height="26" viewBox="0 0 29 26" fill="none" xmlns="http://www.w3.org/2000/svg">
<rect width="29" height="26" rx="8" fill="#343647"/>
<path d="M15.6055 9.28467C15.29 8.90739 14.8385 8.71875 14.251 8.71875C13.4469 8.71875 12.8996 9.01872 12.6089 9.61865C12.4419 9.96501 12.3429 10.5155 12.312 11.27H9.74219C9.78548 10.1258 9.99268 9.20117 10.3638 8.49609C11.0688 7.15397 12.3213 6.48291 14.1211 6.48291C15.5436 6.48291 16.6755 6.87874 17.5166 7.67041C18.3577 8.45589 18.7783 9.49805 18.7783 10.7969C18.7783 11.7926 18.4814 12.6771 17.8877 13.4502C17.498 13.9635 16.8579 14.5356 15.9673 15.1665L14.9097 15.918C14.2479 16.388 13.7933 16.7282 13.5459 16.9385C13.3047 17.1488 13.1006 17.3931 12.9336 17.6714H18.8062V20H9.59375C9.61849 19.0352 9.82568 18.1538 10.2153 17.356C10.5926 16.4591 11.4832 15.5098 12.8872 14.5078C14.1056 13.6357 14.8942 13.0111 15.2529 12.6338C15.8034 12.0462 16.0786 11.403 16.0786 10.7041C16.0786 10.1351 15.9209 9.66195 15.6055 9.28467Z" fill="#FEFEFE"/>
</svg>
