<svg width="29" height="26" viewBox="0 0 29 26" fill="none" xmlns="http://www.w3.org/2000/svg">
<rect width="29" height="26" rx="8" fill="#343647"/>
<path d="M12.6367 9.229C12.3398 9.62484 12.1976 10.1536 12.21 10.8154H9.74219C9.76693 10.1475 9.88135 9.51351 10.0854 8.91357C10.3019 8.38786 10.6421 7.90234 11.106 7.45703C11.4523 7.1416 11.8636 6.90039 12.3398 6.7334C12.8161 6.56641 13.4006 6.48291 14.0933 6.48291C15.3797 6.48291 16.4157 6.81689 17.2012 7.48486C17.9928 8.14665 18.3887 9.03727 18.3887 10.1567C18.3887 10.9484 18.1536 11.6164 17.6836 12.1606C17.3867 12.5008 17.0775 12.7327 16.7559 12.8564C16.9971 12.8564 17.3434 13.0636 17.7949 13.478C18.4691 14.1027 18.8062 14.9562 18.8062 16.0386C18.8062 17.1766 18.4103 18.1785 17.6187 19.0444C16.8332 19.9041 15.6673 20.334 14.1211 20.334C12.2161 20.334 10.8926 19.7124 10.1504 18.4692C9.76074 17.8075 9.54427 16.9416 9.50098 15.8716H12.0986C12.0986 16.4097 12.1852 16.855 12.3584 17.2075C12.68 17.8569 13.2645 18.1816 14.1118 18.1816C14.6313 18.1816 15.0828 18.0054 15.4663 17.6528C15.856 17.2941 16.0508 16.7808 16.0508 16.1128C16.0508 15.2284 15.6921 14.6377 14.9746 14.3408C14.5664 14.1738 13.9232 14.0903 13.0449 14.0903V12.1978C13.9046 12.1854 14.5046 12.1019 14.8447 11.9473C15.4323 11.6875 15.7261 11.1618 15.7261 10.3701C15.7261 9.85677 15.5745 9.43929 15.2715 9.11768C14.9746 8.79606 14.554 8.63525 14.0098 8.63525C13.3851 8.63525 12.9274 8.83317 12.6367 9.229Z" fill="#FEFEFE"/>
</svg>
