<svg width="118" height="23" viewBox="0 0 118 23" fill="none" xmlns="http://www.w3.org/2000/svg">
<rect width="118" height="23" rx="5" fill="#276AFC"/>
<path d="M15.4022 13.564C15.7215 13.564 15.9808 13.5288 16.18 13.4585C16.558 13.3237 16.7469 13.0732 16.7469 12.707C16.7469 12.4932 16.6532 12.3276 16.4657 12.2104C16.2782 12.0962 15.9837 11.9951 15.5824 11.9072L14.8968 11.7534C14.223 11.6011 13.7572 11.4355 13.4994 11.2568C13.0629 10.958 12.8446 10.4907 12.8446 9.85498C12.8446 9.2749 13.0555 8.79297 13.4774 8.40918C13.8993 8.02539 14.5189 7.8335 15.3363 7.8335C16.0189 7.8335 16.6004 8.01514 17.0809 8.37842C17.5643 8.73877 17.8177 9.26318 17.8412 9.95166H16.5404C16.517 9.56201 16.347 9.28516 16.0306 9.12109C15.8197 9.0127 15.5575 8.9585 15.244 8.9585C14.8954 8.9585 14.6171 9.02881 14.409 9.16943C14.201 9.31006 14.097 9.50635 14.097 9.7583C14.097 9.98975 14.1996 10.1626 14.4046 10.2769C14.5365 10.353 14.8177 10.4424 15.2484 10.5449L16.3646 10.813C16.8539 10.9302 17.223 11.0869 17.472 11.2832C17.8587 11.5879 18.0521 12.0288 18.0521 12.606C18.0521 13.1978 17.8251 13.6899 17.371 14.0825C16.9198 14.4722 16.2811 14.667 15.4549 14.667C14.6112 14.667 13.9476 14.4751 13.4642 14.0913C12.9808 13.7046 12.7391 13.1743 12.7391 12.5005H14.0311C14.0721 12.7964 14.1527 13.0176 14.2728 13.1641C14.4925 13.4307 14.869 13.564 15.4022 13.564ZM25.0029 11.6699H21.8564V13.3354H25.4423V14.5H20.5336V8.02246H25.2841V9.16943H21.8564V10.5449H25.0029V11.6699ZM27.937 8.02246H29.2905V13.3354H32.4985V14.5H27.937V8.02246ZM39.3877 11.6699H36.2412V13.3354H39.8272V14.5H34.9185V8.02246H39.669V9.16943H36.2412V10.5449H39.3877V11.6699ZM46.8922 14.0166C46.4088 14.459 45.7906 14.6802 45.0377 14.6802C44.1061 14.6802 43.3736 14.3813 42.8404 13.7837C42.3072 13.1831 42.0406 12.3599 42.0406 11.314C42.0406 10.1831 42.3438 9.31152 42.9503 8.69922C43.4776 8.16602 44.1485 7.89941 44.963 7.89941C46.0528 7.89941 46.8497 8.25684 47.3536 8.97168C47.6319 9.37305 47.7813 9.77588 47.8019 10.1802H46.4483C46.3604 9.86963 46.2477 9.63525 46.11 9.47705C45.8639 9.1958 45.4991 9.05518 45.0157 9.05518C44.5235 9.05518 44.1354 9.25439 43.8512 9.65283C43.567 10.0483 43.4249 10.6094 43.4249 11.3359C43.4249 12.0625 43.5743 12.6074 43.8731 12.9707C44.1749 13.3311 44.5572 13.5112 45.0201 13.5112C45.4947 13.5112 45.8565 13.356 46.1056 13.0454C46.2433 12.8784 46.3575 12.6279 46.4483 12.2939H47.7887C47.6715 13 47.3727 13.5742 46.8922 14.0166ZM54.9723 8.02246V9.16943H53.0343V14.5H51.672V9.16943H49.7253V8.02246H54.9723ZM65.6614 11.6699H62.5149V13.3354H66.1009V14.5H61.1922V8.02246H65.9427V9.16943H62.5149V10.5449H65.6614V11.6699ZM71.3861 14.5H68.5955V8.02246H71.3861C71.7874 8.02832 72.1214 8.0752 72.388 8.16309C72.8421 8.3125 73.2098 8.58643 73.4911 8.98486C73.7166 9.30713 73.8704 9.65576 73.9525 10.0308C74.0345 10.4058 74.0755 10.7632 74.0755 11.103C74.0755 11.9644 73.9027 12.6938 73.557 13.2915C73.0882 14.0972 72.3646 14.5 71.3861 14.5ZM72.3924 9.6748C72.1844 9.32324 71.7728 9.14746 71.1576 9.14746H69.9095V13.375H71.1576C71.7962 13.375 72.2415 13.0601 72.4935 12.4302C72.6312 12.0845 72.7 11.6729 72.7 11.1953C72.7 10.5361 72.5975 10.0293 72.3924 9.6748ZM76.434 8.02246H77.7787V14.5H76.434V8.02246ZM85.1909 8.02246V9.16943H83.2529V14.5H81.8906V9.16943H79.9438V8.02246H85.1909ZM87.3208 8.02246H88.6656V14.5H87.3208V8.02246ZM94.2364 14.6802C93.3106 14.6802 92.6031 14.4282 92.1138 13.9243C91.4576 13.3062 91.1295 12.4155 91.1295 11.2524C91.1295 10.0659 91.4576 9.17529 92.1138 8.58057C92.6031 8.07666 93.3106 7.82471 94.2364 7.82471C95.1622 7.82471 95.8697 8.07666 96.359 8.58057C97.0123 9.17529 97.3389 10.0659 97.3389 11.2524C97.3389 12.4155 97.0123 13.3062 96.359 13.9243C95.8697 14.4282 95.1622 14.6802 94.2364 14.6802ZM95.5152 12.9399C95.8287 12.5444 95.9854 11.9819 95.9854 11.2524C95.9854 10.5259 95.8272 9.96484 95.5108 9.56934C95.1973 9.1709 94.7725 8.97168 94.2364 8.97168C93.7003 8.97168 93.2725 9.16943 92.9532 9.56494C92.6339 9.96045 92.4742 10.5229 92.4742 11.2524C92.4742 11.9819 92.6339 12.5444 92.9532 12.9399C93.2725 13.3354 93.7003 13.5332 94.2364 13.5332C94.7725 13.5332 95.1988 13.3354 95.5152 12.9399ZM105.054 14.5H103.701L101.055 9.89893V14.5H99.7941V8.02246H101.214L103.793 12.5444V8.02246H105.054V14.5Z" fill="white"/>
</svg>
